#!OML:ASF F:\VICON\USERDATA\INSTALL\Justin_Nancy\Justin_Nancy.ASF
:FULLY-SPECIFIED
:DEGREES
55
root 0.688745 17.4292 -34.4466 7.30847 -1.52446 1.53975
lowerback 2.49144 -3.5459 -6.09345
upperback -4.11668 -4.83607 5.51689
thorax -4.73258 -2.07293 9.5777
lowerneck -6.90052 0.0960301 -14.4587
upperneck 18.534 1.21458 4.97056
head 6.69261 -0.00608168 4.09979
rclavicle 5.76476e-014 -4.77083e-014
rhumerus -34.8044 1.35091 -80.7665
rradius 27.619
rwrist 8.56394
rhand -16.4705 12.2819
rfingers 7.12502
rthumb 9.74627 -17.4726
lclavicle 5.76476e-014 -4.77083e-014
lhumerus -42.6206 22.4213 81.7735
lradius 29.4667
lwrist -7.87841
lhand -13.0231 31.1018
lfingers 7.12502
lthumb 13.0709 60.6722
rfemur -14.6891 4.84264 21.6948
rtibia 31.3479
rfoot -18.7971 -11.2054
rtoes 2.04275
lfemur -15.1701 -3.94012 -21.5682
ltibia 30.4867
lfoot -19.1519 8.57084
ltoes 0.691382
56
root 0.675369 17.4242 -34.4389 7.32443 -1.76338 1.64985
lowerback 2.54562 -3.43556 -6.27702
upperback -4.08042 -4.70161 5.47782
thorax -4.74339 -1.99947 9.64027
lowerneck -6.89727 0.11788 -14.3751
upperneck 18.3949 1.23433 4.95981
head 6.645 0.0140527 4.08075
rclavicle 3.99806e-014 -1.59028e-014
rhumerus -34.7902 1.32904 -80.7484
rradius 27.6047
rwrist 8.71271
rhand -16.6797 12.6886
rfingers 7.12502
rthumb 9.54435 -17.0752
lclavicle 3.99806e-014 -1.59028e-014
lhumerus -42.6988 22.331 81.7634
lradius 29.6396
lwrist -7.88043
lhand -12.9007 31.4975
lfingers 7.12502
lthumb 13.189 61.0603
rfemur -14.7521 4.88437 21.5821
rtibia 31.4134
rfoot -18.9132 -11.0024
rtoes 3.35181
lfemur -15.1615 -3.87868 -21.6924
ltibia 30.4907
lfoot -19.0573 8.79908
ltoes 0.158702
57
root 0.662955 17.4212 -34.4307 7.34494 -1.79186 1.6512
lowerback 2.96322 -3.97675 -6.99207
upperback -4.42863 -5.46687 6.18776
thorax -5.07175 -2.31251 10.9326
lowerneck -6.58882 0.807212 -15.2403
upperneck 18.5383 2.27098 4.79068
head 6.53481 0.432742 4.2342
rclavicle 3.56818e-014 -5.56597e-014
rhumerus -35.0188 3.67847 -80.7433
rradius 27.5543
rwrist 8.8211
rhand -17.1051 12.0918
rfingers 7.12502
rthumb 9.13388 -17.6904
lclavicle 3.56818e-014 -5.56597e-014
lhumerus -44.0692 24.3896 81.2815
lradius 30.0251
lwrist -7.9457
lhand -12.602 32.0205
lfingers 7.12502
lthumb 13.4769 61.5644
rfemur -14.7711 4.91271 21.6292
rtibia 31.4405
rfoot -18.9336 -11.0239
rtoes 2.17459
lfemur -15.1736 -3.71365 -21.6449
ltibia 30.5338
lfoot -19.1008 8.5895
ltoes 0.232472
58
root 0.652774 17.4194 -34.42 7.39044 -1.7945 1.57749
lowerback 2.87242 -3.89773 -6.51705
upperback -4.49637 -5.33415 5.97216
thorax -5.17925 -2.2602 10.4057
lowerneck -6.01369 0.730249 -15.3445
upperneck 18.4126 2.03304 5.04726
head 6.41177 0.332616 4.30949
rclavicle -4.08254e-014 -7.95139e-015
rhumerus -35.4811 3.37164 -80.9111
rradius 27.8146
rwrist 8.62705
rhand -18.0091 10.9586
rfingers 7.12502
rthumb 8.26159 -18.8598
lclavicle -4.08254e-014 -7.95139e-015
lhumerus -44.2683 24.0241 80.9628
lradius 29.9989
lwrist -7.80517
lhand -12.276 32.1178
lfingers 7.12502
lthumb 13.791 61.6407
rfemur -14.7645 4.98604 21.7478
rtibia 31.4335
rfoot -19.0199 -11.1287
rtoes 3.27881
lfemur -15.1925 -3.77034 -21.5295
ltibia 30.5884
lfoot -19.2035 8.5862
ltoes 0.853006
59
root 0.641045 17.417 -34.4085 7.39468 -1.71873 1.47652
lowerback 2.78857 -3.72533 -6.33114
upperback -4.2374 -5.09237 5.83658
thorax -4.93349 -2.17191 10.1122
lowerneck -6.50156 0.408292 -14.9692
upperneck 18.4396 1.64064 4.98313
head 6.54888 0.166087 4.20933
rclavicle 5.25537e-014 1.59028e-015
rhumerus -35.2177 2.86215 -80.9458
rradius 27.968
rwrist 8.37874
rhand -19.9074 10.2394
rfingers 7.12502
rthumb 6.42923 -19.6431
lclavicle 5.25537e-014 1.59028e-015
lhumerus -43.4404 23.9683 80.8757
lradius 29.3675
lwrist -8.19443
lhand -12.3704 31.7978
lfingers 7.12502
lthumb 13.7 61.3268
rfemur -14.6882 4.99216 21.9156
rtibia 31.3821
rfoot -19.0753 -11.1745
rtoes 2.08953
lfemur -15.1877 -3.86369 -21.3709
ltibia 30.6538
lfoot -19.2814 8.68629
ltoes 0.935821
60
root 0.627444 17.417 -34.3976 7.39982 -1.48124 1.40772
lowerback 2.46586 -2.70633 -4.91722
upperback -3.55445 -3.67989 4.5612
thorax -4.47947 -1.58003 7.78103
lowerneck -7.89103 -0.828051 -13.5939
upperneck 18.6799 -0.134653 5.59583
head 7.03766 -0.538297 4.07604
rclavicle 3.57315e-014 -9.54166e-015
rhumerus -34.6099 -1.76595 -80.8679
rradius 27.9875
rwrist 8.92805
rhand -17.4083 7.29429
rfingers 7.12502
rthumb 8.84137 -22.5005
lclavicle 3.57315e-014 -9.54166e-015
lhumerus -41.2306 19.8088 81.8537
lradius 29.4114
lwrist -7.62569
lhand -12.4353 31.633
lfingers 7.12502
lthumb 13.6375 61.1662
rfemur -14.5765 4.94011 22.0843
rtibia 31.3222
rfoot -19.0562 -11.2469
rtoes 3.99219
lfemur -15.1986 -3.9921 -21.2039
ltibia 30.6917
lfoot -19.343 8.61162
ltoes 1.24297
61
root 0.615658 17.4155 -34.3866 7.47055 -1.48638 1.41669
lowerback 2.61343 -2.7964 -4.92812
upperback -3.66193 -3.80293 4.64074
thorax -4.6508 -1.62963 7.89397
lowerneck -8.02832 -0.62011 -13.7247
upperneck 18.7642 0.179848 5.65646
head 7.05681 -0.392402 4.14569
rclavicle 3.16565e-014 -3.81667e-014
rhumerus -34.7111 -1.24162 -80.9525
rradius 28.1971
rwrist 8.549
rhand -17.351 8.76999
rfingers 7.12502
rthumb 8.89665 -21.0225
lclavicle 3.16565e-014 -3.81667e-014
lhumerus -41.6115 19.9647 81.7591
lradius 29.741
lwrist -7.54041
lhand -12.1921 31.8413
lfingers 7.12502
lthumb 13.8719 61.3586
rfemur -14.5995 4.93281 22.123
rtibia 31.2962
rfoot -19.0256 -11.2455
rtoes 3.33623
lfemur -15.2788 -3.79501 -21.1747
ltibia 30.6899
lfoot -19.3604 8.57256
ltoes 0.286246
